<svg t="1715157367836" class="icon" viewBox="0 0 1024 1024" version="1.1" xmlns="http://www.w3.org/2000/svg" p-id="4545" width="200" height="200"><path d="M183.89333333 525.76c-15.46666667 1.6-27.94666667 14.08-29.54666666 29.54666667-2.24 21.22666667 15.57333333 39.14666667 36.90666666 36.90666666 15.46666667-1.6 27.94666667-14.08 29.65333334-29.65333333 2.13333333-21.22666667-15.78666667-39.04-37.01333334-36.8zM248.96 471.14666667c23.25333333-2.02666667 42.02666667-20.8 44.16-44.16 2.66666667-30.4-22.61333333-55.78666667-53.01333333-53.01333334-23.25333333 2.02666667-42.02666667 20.8-44.16 44.16-2.77333333 30.29333333 22.61333333 55.68 53.01333333 53.01333334zM409.38666667 250.56c-30.4 1.92-55.04 26.56-56.96 56.96-2.34666667 36.8 28.16 67.30666667 64.96 64.96 30.4-1.92 55.04-26.56 56.96-56.96 2.24-36.90666667-28.16-67.30666667-64.96-64.96zM629.22666667 236.58666667c-37.44 2.34666667-67.62666667 32.64-69.97333334 69.97333333-2.88 45.22666667 34.56 82.77333333 79.78666667 79.78666667 37.44-2.34666667 67.62666667-32.64 69.97333333-69.97333334 2.98666667-45.22666667-34.45333333-82.66666667-79.78666666-79.78666666zM996.8 260.69333333c-0.53333333-8.10666667-4.26666667-15.57333333-10.45333333-20.90666666l-0.74666667-0.64c-5.54666667-4.8-12.69333333-7.46666667-20.05333333-7.46666667-8.85333333 0-17.28 3.84-23.04 10.56L578.13333333 661.76l-46.4 91.2 1.17333334 0.96-5.22666667 12.05333333 11.84-6.29333333 1.6 1.38666667 83.2-57.92 365.12-420.26666667c5.33333333-6.18666667 7.89333333-14.08 7.36-22.18666667z" p-id="4546"></path><path d="M923.52 473.92c-14.72-1.49333333-28.48 7.89333333-32.42666667 22.08-7.36 26.24-20.58666667 68.8-37.44 104.32C829.33333333 651.73333333 784.42666667 723.30666667 709.01333333 772.26666667c-77.01333333 50.02666667-152.21333333 60.48-201.81333333 60.48-39.46666667 0-77.01333333-6.50666667-108.48-18.88-28.69333333-11.2-49.49333333-26.24-58.56-42.34666667-3.62666667-6.50666667-7.68-13.76-11.94666667-21.54666667-18.34666667-33.17333333-39.04-70.93333333-53.01333333-82.56-16.96-14.08-41.70666667-16-63.78666667-16-8.64 0-43.52 1.38666667-51.73333333 1.38666667-35.30666667 0-52.69333333-6.93333333-59.84-23.89333333-18.98666667-45.12-7.78666667-121.92 28.58666667-195.62666667C184.74666667 319.36 285.86666667 236.05333333 405.97333333 204.8c42.66666667-11.30666667 86.61333333-20.16 129.38666667-20.16 91.30666667 0 200.32 34.98666667 269.33333333 82.34666667 12.16 8.32 28.69333333 6.18666667 38.08-5.22666667 11.09333333-13.44 7.57333333-33.49333333-7.25333333-42.45333333-24.85333333-14.93333333-61.76-36.26666667-92.05333333-50.24-64.32-29.76-131.94666667-44.69333333-201.81333334-44.69333334-72.64 0-158.72 17.49333333-231.68 50.34666667-83.30666667 37.33333333-144.21333333 90.66666667-191.36 157.33333333-38.82666667 54.82666667-72.32 118.50666667-85.44 179.94666667-8 37.44-7.25333333 61.22666667-2.56 93.65333333 4.48 31.14666667 14.29333333 56 28.69333334 72 23.89333333 26.77333333 54.93333333 39.89333333 94.93333333 39.89333334 14.82666667 0 60.05333333-5.33333333 67.30666667-5.33333334 7.89333333 0 13.01333333 1.28 15.36 4.05333334 6.82666667 7.89333333 15.36 23.89333333 25.28 42.56 8 15.04 16.96 32.10666667 27.09333333 48.32 12.90666667 20.8 39.36 43.09333333 70.93333333 59.62666666 28.8 15.04 76.69333333 33.06666667 141.01333334 33.06666667 76.8 0 158.18666667-25.17333333 241.81333333-74.77333333 79.89333333-47.36 131.2-126.82666667 160.21333333-185.17333334 20.26666667-40.85333333 37.01333333-93.01333333 46.72-127.04 5.12-18.45333333-7.46666667-37.01333333-26.45333333-38.93333333z" p-id="4547"></path></svg>