<svg t="1715158310024" class="icon" viewBox="0 0 1316 1024" version="1.1" xmlns="http://www.w3.org/2000/svg" p-id="3957" width="200" height="200"><path d="M115.370667 115.370667h128.292571a50.712381 50.712381 0 0 0 0-101.376H109.714286A95.719619 95.719619 0 0 0 13.994667 109.714286v789.942857c0 52.857905 42.861714 95.719619 95.719619 95.719619h133.948952a50.712381 50.712381 0 1 0 0-101.376H115.370667V115.370667z m1065.106285 0h-128.341333a50.712381 50.712381 0 0 1 0-101.376h133.948952c52.857905 0 95.719619 42.861714 95.719619 95.719619v789.942857a95.719619 95.719619 0 0 1-95.719619 95.719619h-133.948952a50.712381 50.712381 0 1 1 0-101.376h128.341333V115.370667z" p-id="3958"></path><path d="M451.925333 254.829714c97.767619 0 175.396571 37.64419 175.396572 156.233143 0 77.433905-35.352381 125.610667-88.990476 148.626286l92.16 178.468571a22.528 22.528 0 0 1-19.992381 32.865524h-53.101715a22.528 22.528 0 0 1-20.187428-12.629333l-89.721905-182.662095H382.488381v172.81219a22.528 22.528 0 0 1-22.528 22.528h-48.274286a22.528 22.528 0 0 1-22.576762-22.528V277.357714c0-12.434286 10.093714-22.528 22.528-22.528h140.288zM443.099429 336.457143H382.488381v157.647238h60.611048c59.928381 0 92.745143-27.940571 92.745142-83.041524 0-55.783619-32.816762-74.605714-92.745142-74.605714zM1024 277.357714v40.764953a22.528 22.528 0 0 1-22.528 22.528H830.902857v119.271619h141.55581c12.434286 0 22.528 10.044952 22.528 22.479238v41.496381a22.528 22.528 0 0 1-22.528 22.528h-141.55581v138.093714h177.493333c12.385524 0 22.479238 10.093714 22.479239 22.528v41.447619a22.528 22.528 0 0 1-22.528 22.528h-248.295619a22.528 22.528 0 0 1-22.528-22.528V277.357714c0-12.434286 10.093714-22.528 22.528-22.528h241.371428c12.483048 0 22.576762 10.093714 22.576762 22.528z" p-id="3959"></path></svg>